G04 #@! TF.FileFunction,Copper,L2,Bot,Signal*
%FSLAX46Y46*%
G04 Gerber Fmt 4.6, Leading zero omitted, Abs format (unit mm)*
G04 Created by KiCad (PCBNEW 4.0.4-stable) date 04/06/17 15:32:41*
%MOMM*%
%LPD*%
G01*
G04 APERTURE LIST*
%ADD10C,0.100000*%
%ADD11C,1.998980*%
%ADD12R,1.270000X4.191000*%
%ADD13O,2.032000X1.727200*%
%ADD14R,1.850000X1.850000*%
%ADD15C,1.850000*%
%ADD16R,2.800000X2.800000*%
%ADD17C,0.600000*%
%ADD18C,0.250000*%
%ADD19C,0.254000*%
G04 APERTURE END LIST*
D10*
D11*
X135890000Y-137160000D03*
X134874000Y-96774000D03*
D12*
X147459700Y-96964500D03*
X151752300Y-96964500D03*
D13*
X153898600Y-100914200D03*
X153898600Y-103454200D03*
X153898600Y-105994200D03*
X153898600Y-108534200D03*
X153898600Y-111074200D03*
X153898600Y-113614200D03*
X153898600Y-116154200D03*
X153898600Y-118694200D03*
X153898600Y-121234200D03*
X153898600Y-123774200D03*
X153898600Y-126314200D03*
X153898600Y-128854200D03*
X153898600Y-131394200D03*
X153898600Y-133934200D03*
X153898600Y-136474200D03*
X131038600Y-100914200D03*
X131038600Y-131394200D03*
X131038600Y-133934200D03*
X131038600Y-128854200D03*
X131038600Y-113614200D03*
X131038600Y-111074200D03*
X131038600Y-116154200D03*
X131038600Y-136474200D03*
X131038600Y-121234200D03*
X131038600Y-118694200D03*
X131038600Y-123774200D03*
X131038600Y-126314200D03*
X131038600Y-105994200D03*
X131038600Y-108534200D03*
X131038600Y-103454200D03*
D11*
X137414000Y-96774000D03*
X139954000Y-96774000D03*
X138430000Y-137160000D03*
D14*
X153771600Y-143941800D03*
D15*
X153771600Y-141441800D03*
D16*
X138711000Y-122567600D03*
X146311000Y-122567600D03*
X135311000Y-122567600D03*
X149811000Y-122567600D03*
X135611000Y-145467600D03*
X149811000Y-145467600D03*
D17*
X149199600Y-130124200D03*
X132715000Y-139446000D03*
X132969000Y-128206500D03*
X133032500Y-119951500D03*
X133032500Y-117919500D03*
X141483600Y-101119400D03*
X141478000Y-117348000D03*
X137414000Y-101346000D03*
X134620000Y-104648000D03*
X150266400Y-136169400D03*
X150164800Y-132765800D03*
X151765000Y-137337800D03*
X147853400Y-132486400D03*
D18*
X147828000Y-125222000D02*
X149811000Y-123239000D01*
X147828000Y-128752600D02*
X147828000Y-125222000D01*
X149199600Y-130124200D02*
X147828000Y-128752600D01*
X149811000Y-123239000D02*
X149811000Y-122567600D01*
X134874000Y-96774000D02*
X135128000Y-96774000D01*
X135128000Y-96774000D02*
X136906000Y-94996000D01*
X136906000Y-94996000D02*
X144018000Y-94996000D01*
X144018000Y-94996000D02*
X145288000Y-96266000D01*
X145288000Y-96266000D02*
X145288000Y-101854000D01*
X145288000Y-101854000D02*
X146304000Y-102870000D01*
X146304000Y-102870000D02*
X150622000Y-102870000D01*
X150622000Y-102870000D02*
X152577800Y-100914200D01*
X152577800Y-100914200D02*
X153898600Y-100914200D01*
X135572500Y-133934200D02*
X135572500Y-134747000D01*
X132715000Y-137604500D02*
X132715000Y-139446000D01*
X135572500Y-134747000D02*
X132715000Y-137604500D01*
X133197600Y-133934200D02*
X133197600Y-129946400D01*
X135311000Y-127833000D02*
X135311000Y-122567600D01*
X133197600Y-129946400D02*
X135311000Y-127833000D01*
X138709400Y-133934200D02*
X138709400Y-136880600D01*
X138709400Y-136880600D02*
X138430000Y-137160000D01*
X131038600Y-116154200D02*
X130225800Y-116154200D01*
X130225800Y-116154200D02*
X129540000Y-116840000D01*
X129540000Y-116840000D02*
X129540000Y-132435600D01*
X129540000Y-132435600D02*
X131038600Y-133934200D01*
X131038600Y-133934200D02*
X133197600Y-133934200D01*
X133197600Y-133934200D02*
X135572500Y-133934200D01*
X135572500Y-133934200D02*
X138709400Y-133934200D01*
X138709400Y-133934200D02*
X153898600Y-133934200D01*
X147459700Y-96964500D02*
X147459700Y-98437700D01*
X147459700Y-98437700D02*
X148590000Y-99568000D01*
X148590000Y-99568000D02*
X151130000Y-99568000D01*
X151130000Y-99568000D02*
X151752300Y-98945700D01*
X151752300Y-98945700D02*
X151752300Y-96964500D01*
X131038600Y-113614200D02*
X132029200Y-113614200D01*
X132029200Y-113614200D02*
X133032500Y-114617500D01*
X132969000Y-120015000D02*
X132969000Y-128206500D01*
X133032500Y-119951500D02*
X132969000Y-120015000D01*
X133032500Y-114617500D02*
X133032500Y-117919500D01*
X131038600Y-113614200D02*
X138099800Y-113614200D01*
X141478000Y-110236000D02*
X138099800Y-113614200D01*
X141478000Y-101125000D02*
X141478000Y-110236000D01*
X141478000Y-101125000D02*
X141483600Y-101119400D01*
X131038600Y-111074200D02*
X134035800Y-111074200D01*
X140462000Y-104648000D02*
X140462000Y-97282000D01*
X134035800Y-111074200D02*
X140462000Y-104648000D01*
X140462000Y-97282000D02*
X139954000Y-96774000D01*
X135890000Y-119634000D02*
X140970000Y-119634000D01*
X134950200Y-118694200D02*
X135890000Y-119634000D01*
X140970000Y-119634000D02*
X141478000Y-119126000D01*
X131038600Y-118694200D02*
X134950200Y-118694200D01*
X141478000Y-119126000D02*
X141478000Y-117348000D01*
X131038600Y-105994200D02*
X134543800Y-105994200D01*
X137414000Y-103124000D02*
X137414000Y-101346000D01*
X134543800Y-105994200D02*
X137414000Y-103124000D01*
X131038600Y-108534200D02*
X133781800Y-108534200D01*
X138430000Y-97790000D02*
X137414000Y-96774000D01*
X138430000Y-103886000D02*
X138430000Y-97790000D01*
X133781800Y-108534200D02*
X138430000Y-103886000D01*
X133426200Y-103454200D02*
X131038600Y-103454200D01*
X134620000Y-104648000D02*
X133426200Y-103454200D01*
X146311000Y-122567600D02*
X146311000Y-128912000D01*
X152171400Y-143941800D02*
X153771600Y-143941800D01*
X150926800Y-142697200D02*
X152171400Y-143941800D01*
X150926800Y-136829800D02*
X150926800Y-142697200D01*
X150266400Y-136169400D02*
X150926800Y-136829800D01*
X146311000Y-128912000D02*
X150164800Y-132765800D01*
X138711000Y-122567600D02*
X138711000Y-128652600D01*
X152069800Y-139740000D02*
X153771600Y-141441800D01*
X152069800Y-137642600D02*
X152069800Y-139740000D01*
X151765000Y-137337800D02*
X152069800Y-137642600D01*
X142544800Y-132486400D02*
X147853400Y-132486400D01*
X138711000Y-128652600D02*
X142544800Y-132486400D01*
D19*
G36*
X144528000Y-96580802D02*
X144528000Y-101854000D01*
X144585852Y-102144839D01*
X144750599Y-102391401D01*
X145766599Y-103407401D01*
X146013161Y-103572148D01*
X146304000Y-103630000D01*
X150622000Y-103630000D01*
X150912839Y-103572148D01*
X151159401Y-103407401D01*
X152629650Y-101937152D01*
X152654185Y-101973870D01*
X152968966Y-102184200D01*
X152654185Y-102394530D01*
X152329329Y-102880711D01*
X152215255Y-103454200D01*
X152329329Y-104027689D01*
X152654185Y-104513870D01*
X152968966Y-104724200D01*
X152654185Y-104934530D01*
X152329329Y-105420711D01*
X152215255Y-105994200D01*
X152329329Y-106567689D01*
X152654185Y-107053870D01*
X152968966Y-107264200D01*
X152654185Y-107474530D01*
X152329329Y-107960711D01*
X152215255Y-108534200D01*
X152329329Y-109107689D01*
X152654185Y-109593870D01*
X152968966Y-109804200D01*
X152654185Y-110014530D01*
X152329329Y-110500711D01*
X152215255Y-111074200D01*
X152329329Y-111647689D01*
X152654185Y-112133870D01*
X152968966Y-112344200D01*
X152654185Y-112554530D01*
X152329329Y-113040711D01*
X152215255Y-113614200D01*
X152329329Y-114187689D01*
X152654185Y-114673870D01*
X152968966Y-114884200D01*
X152654185Y-115094530D01*
X152329329Y-115580711D01*
X152215255Y-116154200D01*
X152329329Y-116727689D01*
X152654185Y-117213870D01*
X152968966Y-117424200D01*
X152654185Y-117634530D01*
X152329329Y-118120711D01*
X152215255Y-118694200D01*
X152329329Y-119267689D01*
X152654185Y-119753870D01*
X152968966Y-119964200D01*
X152654185Y-120174530D01*
X152329329Y-120660711D01*
X152215255Y-121234200D01*
X152329329Y-121807689D01*
X152654185Y-122293870D01*
X152963669Y-122500661D01*
X152547868Y-122872164D01*
X152293891Y-123399409D01*
X152291242Y-123415174D01*
X152412383Y-123647200D01*
X153771600Y-123647200D01*
X153771600Y-123627200D01*
X154025600Y-123627200D01*
X154025600Y-123647200D01*
X154045600Y-123647200D01*
X154045600Y-123901200D01*
X154025600Y-123901200D01*
X154025600Y-123921200D01*
X153771600Y-123921200D01*
X153771600Y-123901200D01*
X152412383Y-123901200D01*
X152291242Y-124133226D01*
X152293891Y-124148991D01*
X152547868Y-124676236D01*
X152963669Y-125047739D01*
X152654185Y-125254530D01*
X152329329Y-125740711D01*
X152215255Y-126314200D01*
X152329329Y-126887689D01*
X152654185Y-127373870D01*
X152968966Y-127584200D01*
X152654185Y-127794530D01*
X152329329Y-128280711D01*
X152215255Y-128854200D01*
X152329329Y-129427689D01*
X152654185Y-129913870D01*
X152968966Y-130124200D01*
X152654185Y-130334530D01*
X152329329Y-130820711D01*
X152215255Y-131394200D01*
X152329329Y-131967689D01*
X152654185Y-132453870D01*
X152963669Y-132660661D01*
X152547868Y-133032164D01*
X152293891Y-133559409D01*
X152291242Y-133575174D01*
X152412383Y-133807200D01*
X153771600Y-133807200D01*
X153771600Y-133787200D01*
X154025600Y-133787200D01*
X154025600Y-133807200D01*
X154045600Y-133807200D01*
X154045600Y-134061200D01*
X154025600Y-134061200D01*
X154025600Y-134081200D01*
X153771600Y-134081200D01*
X153771600Y-134061200D01*
X152412383Y-134061200D01*
X152291242Y-134293226D01*
X152293891Y-134308991D01*
X152547868Y-134836236D01*
X152963669Y-135207739D01*
X152654185Y-135414530D01*
X152329329Y-135900711D01*
X152215255Y-136474200D01*
X152223529Y-136515795D01*
X151951799Y-136402962D01*
X151579833Y-136402638D01*
X151546941Y-136416229D01*
X151464201Y-136292399D01*
X151201522Y-136029720D01*
X151201562Y-135984233D01*
X151059517Y-135640457D01*
X150796727Y-135377208D01*
X150453199Y-135234562D01*
X150081233Y-135234238D01*
X149737457Y-135376283D01*
X149474208Y-135639073D01*
X149331562Y-135982601D01*
X149331238Y-136354567D01*
X149473283Y-136698343D01*
X149736073Y-136961592D01*
X150079601Y-137104238D01*
X150126477Y-137104279D01*
X150166800Y-137144602D01*
X150166800Y-142697200D01*
X150224652Y-142988039D01*
X150389399Y-143234601D01*
X150574958Y-143420160D01*
X148411000Y-143420160D01*
X148175683Y-143464438D01*
X147959559Y-143603510D01*
X147814569Y-143815710D01*
X147763560Y-144067600D01*
X147763560Y-146406800D01*
X137658440Y-146406800D01*
X137658440Y-144067600D01*
X137614162Y-143832283D01*
X137475090Y-143616159D01*
X137262890Y-143471169D01*
X137011000Y-143420160D01*
X134211000Y-143420160D01*
X133975683Y-143464438D01*
X133759559Y-143603510D01*
X133614569Y-143815710D01*
X133563560Y-144067600D01*
X133563560Y-144750861D01*
X133423323Y-144045842D01*
X132899546Y-143261954D01*
X132115658Y-142738177D01*
X131191000Y-142554251D01*
X130266342Y-142738177D01*
X129482454Y-143261954D01*
X128980000Y-144013930D01*
X128980000Y-136474200D01*
X129355255Y-136474200D01*
X129469329Y-137047689D01*
X129794185Y-137533870D01*
X130280366Y-137858726D01*
X130853855Y-137972800D01*
X131223345Y-137972800D01*
X131796834Y-137858726D01*
X132283015Y-137533870D01*
X132316541Y-137483694D01*
X134255226Y-137483694D01*
X134503538Y-138084655D01*
X134962927Y-138544846D01*
X135563453Y-138794206D01*
X136213694Y-138794774D01*
X136814655Y-138546462D01*
X137049362Y-138312163D01*
X137457443Y-138312163D01*
X137556042Y-138578965D01*
X138165582Y-138805401D01*
X138815377Y-138781341D01*
X139303958Y-138578965D01*
X139402557Y-138312163D01*
X138430000Y-137339605D01*
X137457443Y-138312163D01*
X137049362Y-138312163D01*
X137242401Y-138119461D01*
X137277837Y-138132557D01*
X138250395Y-137160000D01*
X138609605Y-137160000D01*
X139582163Y-138132557D01*
X139848965Y-138033958D01*
X140075401Y-137424418D01*
X140051341Y-136774623D01*
X139848965Y-136286042D01*
X139582163Y-136187443D01*
X138609605Y-137160000D01*
X138250395Y-137160000D01*
X137277837Y-136187443D01*
X137241901Y-136200724D01*
X137049351Y-136007837D01*
X137457443Y-136007837D01*
X138430000Y-136980395D01*
X139402557Y-136007837D01*
X139303958Y-135741035D01*
X138694418Y-135514599D01*
X138044623Y-135538659D01*
X137556042Y-135741035D01*
X137457443Y-136007837D01*
X137049351Y-136007837D01*
X136817073Y-135775154D01*
X136216547Y-135525794D01*
X135566306Y-135525226D01*
X134965345Y-135773538D01*
X134505154Y-136232927D01*
X134255794Y-136833453D01*
X134255226Y-137483694D01*
X132316541Y-137483694D01*
X132607871Y-137047689D01*
X132721945Y-136474200D01*
X132607871Y-135900711D01*
X132283015Y-135414530D01*
X131973531Y-135207739D01*
X132389332Y-134836236D01*
X132643309Y-134308991D01*
X132645958Y-134293226D01*
X132524817Y-134061200D01*
X131165600Y-134061200D01*
X131165600Y-134081200D01*
X130911600Y-134081200D01*
X130911600Y-134061200D01*
X129552383Y-134061200D01*
X129431242Y-134293226D01*
X129433891Y-134308991D01*
X129687868Y-134836236D01*
X130103669Y-135207739D01*
X129794185Y-135414530D01*
X129469329Y-135900711D01*
X129355255Y-136474200D01*
X128980000Y-136474200D01*
X128980000Y-97413070D01*
X129482454Y-98165046D01*
X130266342Y-98688823D01*
X131191000Y-98872749D01*
X132115658Y-98688823D01*
X132899546Y-98165046D01*
X133381941Y-97443091D01*
X133487538Y-97698655D01*
X133946927Y-98158846D01*
X134547453Y-98408206D01*
X135197694Y-98408774D01*
X135798655Y-98160462D01*
X136144199Y-97815520D01*
X136486927Y-98158846D01*
X137087453Y-98408206D01*
X137670000Y-98408715D01*
X137670000Y-100439897D01*
X137600799Y-100411162D01*
X137228833Y-100410838D01*
X136885057Y-100552883D01*
X136621808Y-100815673D01*
X136479162Y-101159201D01*
X136478838Y-101531167D01*
X136620883Y-101874943D01*
X136654000Y-101908118D01*
X136654000Y-102809198D01*
X135378659Y-104084539D01*
X135150327Y-103855808D01*
X134806799Y-103713162D01*
X134759923Y-103713121D01*
X133963601Y-102916799D01*
X133717039Y-102752052D01*
X133426200Y-102694200D01*
X132483248Y-102694200D01*
X132283015Y-102394530D01*
X131968234Y-102184200D01*
X132283015Y-101973870D01*
X132607871Y-101487689D01*
X132721945Y-100914200D01*
X132607871Y-100340711D01*
X132283015Y-99854530D01*
X131796834Y-99529674D01*
X131223345Y-99415600D01*
X130853855Y-99415600D01*
X130280366Y-99529674D01*
X129794185Y-99854530D01*
X129469329Y-100340711D01*
X129355255Y-100914200D01*
X129469329Y-101487689D01*
X129794185Y-101973870D01*
X130108966Y-102184200D01*
X129794185Y-102394530D01*
X129469329Y-102880711D01*
X129355255Y-103454200D01*
X129469329Y-104027689D01*
X129794185Y-104513870D01*
X130108966Y-104724200D01*
X129794185Y-104934530D01*
X129469329Y-105420711D01*
X129355255Y-105994200D01*
X129469329Y-106567689D01*
X129794185Y-107053870D01*
X130108966Y-107264200D01*
X129794185Y-107474530D01*
X129469329Y-107960711D01*
X129355255Y-108534200D01*
X129469329Y-109107689D01*
X129794185Y-109593870D01*
X130108966Y-109804200D01*
X129794185Y-110014530D01*
X129469329Y-110500711D01*
X129355255Y-111074200D01*
X129469329Y-111647689D01*
X129794185Y-112133870D01*
X130108966Y-112344200D01*
X129794185Y-112554530D01*
X129469329Y-113040711D01*
X129355255Y-113614200D01*
X129469329Y-114187689D01*
X129794185Y-114673870D01*
X130103669Y-114880661D01*
X129687868Y-115252164D01*
X129433891Y-115779409D01*
X129431242Y-115795174D01*
X129552383Y-116027200D01*
X130911600Y-116027200D01*
X130911600Y-116007200D01*
X131165600Y-116007200D01*
X131165600Y-116027200D01*
X131185600Y-116027200D01*
X131185600Y-116281200D01*
X131165600Y-116281200D01*
X131165600Y-116301200D01*
X130911600Y-116301200D01*
X130911600Y-116281200D01*
X129552383Y-116281200D01*
X129431242Y-116513226D01*
X129433891Y-116528991D01*
X129687868Y-117056236D01*
X130103669Y-117427739D01*
X129794185Y-117634530D01*
X129469329Y-118120711D01*
X129355255Y-118694200D01*
X129469329Y-119267689D01*
X129794185Y-119753870D01*
X130108966Y-119964200D01*
X129794185Y-120174530D01*
X129469329Y-120660711D01*
X129355255Y-121234200D01*
X129469329Y-121807689D01*
X129794185Y-122293870D01*
X130108966Y-122504200D01*
X129794185Y-122714530D01*
X129469329Y-123200711D01*
X129355255Y-123774200D01*
X129469329Y-124347689D01*
X129794185Y-124833870D01*
X130108966Y-125044200D01*
X129794185Y-125254530D01*
X129469329Y-125740711D01*
X129355255Y-126314200D01*
X129469329Y-126887689D01*
X129794185Y-127373870D01*
X130108966Y-127584200D01*
X129794185Y-127794530D01*
X129469329Y-128280711D01*
X129355255Y-128854200D01*
X129469329Y-129427689D01*
X129794185Y-129913870D01*
X130108966Y-130124200D01*
X129794185Y-130334530D01*
X129469329Y-130820711D01*
X129355255Y-131394200D01*
X129469329Y-131967689D01*
X129794185Y-132453870D01*
X130103669Y-132660661D01*
X129687868Y-133032164D01*
X129433891Y-133559409D01*
X129431242Y-133575174D01*
X129552383Y-133807200D01*
X130911600Y-133807200D01*
X130911600Y-133787200D01*
X131165600Y-133787200D01*
X131165600Y-133807200D01*
X132524817Y-133807200D01*
X132645958Y-133575174D01*
X132643309Y-133559409D01*
X132389332Y-133032164D01*
X131973531Y-132660661D01*
X132283015Y-132453870D01*
X132607871Y-131967689D01*
X132721945Y-131394200D01*
X132607871Y-130820711D01*
X132283015Y-130334530D01*
X131968234Y-130124200D01*
X132283015Y-129913870D01*
X132607871Y-129427689D01*
X132673784Y-129096319D01*
X132782201Y-129141338D01*
X133154167Y-129141662D01*
X133497943Y-128999617D01*
X133761192Y-128736827D01*
X133903838Y-128393299D01*
X133904162Y-128021333D01*
X133762117Y-127677557D01*
X133729000Y-127644382D01*
X133729000Y-124579532D01*
X133784690Y-124602600D01*
X135025250Y-124602600D01*
X135184000Y-124443850D01*
X135184000Y-122694600D01*
X135164000Y-122694600D01*
X135164000Y-122440600D01*
X135184000Y-122440600D01*
X135184000Y-120691350D01*
X135438000Y-120691350D01*
X135438000Y-122440600D01*
X135458000Y-122440600D01*
X135458000Y-122694600D01*
X135438000Y-122694600D01*
X135438000Y-124443850D01*
X135596750Y-124602600D01*
X136837310Y-124602600D01*
X137010541Y-124530845D01*
X137059110Y-124564031D01*
X137311000Y-124615040D01*
X137951000Y-124615040D01*
X137951000Y-128652600D01*
X138008852Y-128943439D01*
X138173599Y-129190001D01*
X142007399Y-133023801D01*
X142253961Y-133188548D01*
X142544800Y-133246400D01*
X147290937Y-133246400D01*
X147323073Y-133278592D01*
X147666601Y-133421238D01*
X148038567Y-133421562D01*
X148382343Y-133279517D01*
X148645592Y-133016727D01*
X148788238Y-132673199D01*
X148788420Y-132464222D01*
X149229678Y-132905480D01*
X149229638Y-132950967D01*
X149371683Y-133294743D01*
X149634473Y-133557992D01*
X149978001Y-133700638D01*
X150349967Y-133700962D01*
X150693743Y-133558917D01*
X150956992Y-133296127D01*
X151099638Y-132952599D01*
X151099962Y-132580633D01*
X150957917Y-132236857D01*
X150695127Y-131973608D01*
X150351599Y-131830962D01*
X150304723Y-131830921D01*
X149489775Y-131015973D01*
X149728543Y-130917317D01*
X149991792Y-130654527D01*
X150134438Y-130310999D01*
X150134762Y-129939033D01*
X149992717Y-129595257D01*
X149729927Y-129332008D01*
X149386399Y-129189362D01*
X149339523Y-129189321D01*
X148588000Y-128437798D01*
X148588000Y-125536802D01*
X149509763Y-124615040D01*
X151211000Y-124615040D01*
X151446317Y-124570762D01*
X151662441Y-124431690D01*
X151807431Y-124219490D01*
X151858440Y-123967600D01*
X151858440Y-121167600D01*
X151814162Y-120932283D01*
X151675090Y-120716159D01*
X151462890Y-120571169D01*
X151211000Y-120520160D01*
X148411000Y-120520160D01*
X148175683Y-120564438D01*
X148061022Y-120638220D01*
X147962890Y-120571169D01*
X147711000Y-120520160D01*
X144911000Y-120520160D01*
X144675683Y-120564438D01*
X144459559Y-120703510D01*
X144314569Y-120915710D01*
X144263560Y-121167600D01*
X144263560Y-123967600D01*
X144307838Y-124202917D01*
X144446910Y-124419041D01*
X144659110Y-124564031D01*
X144911000Y-124615040D01*
X145551000Y-124615040D01*
X145551000Y-128912000D01*
X145608852Y-129202839D01*
X145773599Y-129449401D01*
X147875617Y-131551419D01*
X147668233Y-131551238D01*
X147324457Y-131693283D01*
X147291282Y-131726400D01*
X142859602Y-131726400D01*
X139471000Y-128337798D01*
X139471000Y-124615040D01*
X140111000Y-124615040D01*
X140346317Y-124570762D01*
X140562441Y-124431690D01*
X140707431Y-124219490D01*
X140758440Y-123967600D01*
X140758440Y-121167600D01*
X140714162Y-120932283D01*
X140575090Y-120716159D01*
X140362890Y-120571169D01*
X140111000Y-120520160D01*
X137311000Y-120520160D01*
X137075683Y-120564438D01*
X137012433Y-120605138D01*
X136837310Y-120532600D01*
X135596750Y-120532600D01*
X135438000Y-120691350D01*
X135184000Y-120691350D01*
X135025250Y-120532600D01*
X133784690Y-120532600D01*
X133766128Y-120540288D01*
X133824692Y-120481827D01*
X133967338Y-120138299D01*
X133967662Y-119766333D01*
X133838692Y-119454200D01*
X134635398Y-119454200D01*
X135352599Y-120171401D01*
X135599161Y-120336148D01*
X135890000Y-120394000D01*
X140970000Y-120394000D01*
X141260839Y-120336148D01*
X141507401Y-120171401D01*
X142015401Y-119663401D01*
X142035046Y-119634000D01*
X142180148Y-119416839D01*
X142238000Y-119126000D01*
X142238000Y-117910463D01*
X142270192Y-117878327D01*
X142412838Y-117534799D01*
X142413162Y-117162833D01*
X142271117Y-116819057D01*
X142008327Y-116555808D01*
X141664799Y-116413162D01*
X141292833Y-116412838D01*
X140949057Y-116554883D01*
X140685808Y-116817673D01*
X140543162Y-117161201D01*
X140542838Y-117533167D01*
X140684883Y-117876943D01*
X140718000Y-117910118D01*
X140718000Y-118811198D01*
X140655198Y-118874000D01*
X136204802Y-118874000D01*
X135487601Y-118156799D01*
X135241039Y-117992052D01*
X134950200Y-117934200D01*
X133967488Y-117934200D01*
X133967662Y-117734333D01*
X133825617Y-117390557D01*
X133792500Y-117357382D01*
X133792500Y-114617500D01*
X133744104Y-114374200D01*
X138099800Y-114374200D01*
X138390639Y-114316348D01*
X138637201Y-114151601D01*
X142015401Y-110773401D01*
X142180148Y-110526840D01*
X142238000Y-110236000D01*
X142238000Y-101687453D01*
X142275792Y-101649727D01*
X142418438Y-101306199D01*
X142418762Y-100934233D01*
X142276717Y-100590457D01*
X142013927Y-100327208D01*
X141670399Y-100184562D01*
X141298433Y-100184238D01*
X141222000Y-100215819D01*
X141222000Y-97817715D01*
X141338846Y-97701073D01*
X141588206Y-97100547D01*
X141588774Y-96450306D01*
X141340462Y-95849345D01*
X141247280Y-95756000D01*
X143703198Y-95756000D01*
X144528000Y-96580802D01*
X144528000Y-96580802D01*
G37*
X144528000Y-96580802D02*
X144528000Y-101854000D01*
X144585852Y-102144839D01*
X144750599Y-102391401D01*
X145766599Y-103407401D01*
X146013161Y-103572148D01*
X146304000Y-103630000D01*
X150622000Y-103630000D01*
X150912839Y-103572148D01*
X151159401Y-103407401D01*
X152629650Y-101937152D01*
X152654185Y-101973870D01*
X152968966Y-102184200D01*
X152654185Y-102394530D01*
X152329329Y-102880711D01*
X152215255Y-103454200D01*
X152329329Y-104027689D01*
X152654185Y-104513870D01*
X152968966Y-104724200D01*
X152654185Y-104934530D01*
X152329329Y-105420711D01*
X152215255Y-105994200D01*
X152329329Y-106567689D01*
X152654185Y-107053870D01*
X152968966Y-107264200D01*
X152654185Y-107474530D01*
X152329329Y-107960711D01*
X152215255Y-108534200D01*
X152329329Y-109107689D01*
X152654185Y-109593870D01*
X152968966Y-109804200D01*
X152654185Y-110014530D01*
X152329329Y-110500711D01*
X152215255Y-111074200D01*
X152329329Y-111647689D01*
X152654185Y-112133870D01*
X152968966Y-112344200D01*
X152654185Y-112554530D01*
X152329329Y-113040711D01*
X152215255Y-113614200D01*
X152329329Y-114187689D01*
X152654185Y-114673870D01*
X152968966Y-114884200D01*
X152654185Y-115094530D01*
X152329329Y-115580711D01*
X152215255Y-116154200D01*
X152329329Y-116727689D01*
X152654185Y-117213870D01*
X152968966Y-117424200D01*
X152654185Y-117634530D01*
X152329329Y-118120711D01*
X152215255Y-118694200D01*
X152329329Y-119267689D01*
X152654185Y-119753870D01*
X152968966Y-119964200D01*
X152654185Y-120174530D01*
X152329329Y-120660711D01*
X152215255Y-121234200D01*
X152329329Y-121807689D01*
X152654185Y-122293870D01*
X152963669Y-122500661D01*
X152547868Y-122872164D01*
X152293891Y-123399409D01*
X152291242Y-123415174D01*
X152412383Y-123647200D01*
X153771600Y-123647200D01*
X153771600Y-123627200D01*
X154025600Y-123627200D01*
X154025600Y-123647200D01*
X154045600Y-123647200D01*
X154045600Y-123901200D01*
X154025600Y-123901200D01*
X154025600Y-123921200D01*
X153771600Y-123921200D01*
X153771600Y-123901200D01*
X152412383Y-123901200D01*
X152291242Y-124133226D01*
X152293891Y-124148991D01*
X152547868Y-124676236D01*
X152963669Y-125047739D01*
X152654185Y-125254530D01*
X152329329Y-125740711D01*
X152215255Y-126314200D01*
X152329329Y-126887689D01*
X152654185Y-127373870D01*
X152968966Y-127584200D01*
X152654185Y-127794530D01*
X152329329Y-128280711D01*
X152215255Y-128854200D01*
X152329329Y-129427689D01*
X152654185Y-129913870D01*
X152968966Y-130124200D01*
X152654185Y-130334530D01*
X152329329Y-130820711D01*
X152215255Y-131394200D01*
X152329329Y-131967689D01*
X152654185Y-132453870D01*
X152963669Y-132660661D01*
X152547868Y-133032164D01*
X152293891Y-133559409D01*
X152291242Y-133575174D01*
X152412383Y-133807200D01*
X153771600Y-133807200D01*
X153771600Y-133787200D01*
X154025600Y-133787200D01*
X154025600Y-133807200D01*
X154045600Y-133807200D01*
X154045600Y-134061200D01*
X154025600Y-134061200D01*
X154025600Y-134081200D01*
X153771600Y-134081200D01*
X153771600Y-134061200D01*
X152412383Y-134061200D01*
X152291242Y-134293226D01*
X152293891Y-134308991D01*
X152547868Y-134836236D01*
X152963669Y-135207739D01*
X152654185Y-135414530D01*
X152329329Y-135900711D01*
X152215255Y-136474200D01*
X152223529Y-136515795D01*
X151951799Y-136402962D01*
X151579833Y-136402638D01*
X151546941Y-136416229D01*
X151464201Y-136292399D01*
X151201522Y-136029720D01*
X151201562Y-135984233D01*
X151059517Y-135640457D01*
X150796727Y-135377208D01*
X150453199Y-135234562D01*
X150081233Y-135234238D01*
X149737457Y-135376283D01*
X149474208Y-135639073D01*
X149331562Y-135982601D01*
X149331238Y-136354567D01*
X149473283Y-136698343D01*
X149736073Y-136961592D01*
X150079601Y-137104238D01*
X150126477Y-137104279D01*
X150166800Y-137144602D01*
X150166800Y-142697200D01*
X150224652Y-142988039D01*
X150389399Y-143234601D01*
X150574958Y-143420160D01*
X148411000Y-143420160D01*
X148175683Y-143464438D01*
X147959559Y-143603510D01*
X147814569Y-143815710D01*
X147763560Y-144067600D01*
X147763560Y-146406800D01*
X137658440Y-146406800D01*
X137658440Y-144067600D01*
X137614162Y-143832283D01*
X137475090Y-143616159D01*
X137262890Y-143471169D01*
X137011000Y-143420160D01*
X134211000Y-143420160D01*
X133975683Y-143464438D01*
X133759559Y-143603510D01*
X133614569Y-143815710D01*
X133563560Y-144067600D01*
X133563560Y-144750861D01*
X133423323Y-144045842D01*
X132899546Y-143261954D01*
X132115658Y-142738177D01*
X131191000Y-142554251D01*
X130266342Y-142738177D01*
X129482454Y-143261954D01*
X128980000Y-144013930D01*
X128980000Y-136474200D01*
X129355255Y-136474200D01*
X129469329Y-137047689D01*
X129794185Y-137533870D01*
X130280366Y-137858726D01*
X130853855Y-137972800D01*
X131223345Y-137972800D01*
X131796834Y-137858726D01*
X132283015Y-137533870D01*
X132316541Y-137483694D01*
X134255226Y-137483694D01*
X134503538Y-138084655D01*
X134962927Y-138544846D01*
X135563453Y-138794206D01*
X136213694Y-138794774D01*
X136814655Y-138546462D01*
X137049362Y-138312163D01*
X137457443Y-138312163D01*
X137556042Y-138578965D01*
X138165582Y-138805401D01*
X138815377Y-138781341D01*
X139303958Y-138578965D01*
X139402557Y-138312163D01*
X138430000Y-137339605D01*
X137457443Y-138312163D01*
X137049362Y-138312163D01*
X137242401Y-138119461D01*
X137277837Y-138132557D01*
X138250395Y-137160000D01*
X138609605Y-137160000D01*
X139582163Y-138132557D01*
X139848965Y-138033958D01*
X140075401Y-137424418D01*
X140051341Y-136774623D01*
X139848965Y-136286042D01*
X139582163Y-136187443D01*
X138609605Y-137160000D01*
X138250395Y-137160000D01*
X137277837Y-136187443D01*
X137241901Y-136200724D01*
X137049351Y-136007837D01*
X137457443Y-136007837D01*
X138430000Y-136980395D01*
X139402557Y-136007837D01*
X139303958Y-135741035D01*
X138694418Y-135514599D01*
X138044623Y-135538659D01*
X137556042Y-135741035D01*
X137457443Y-136007837D01*
X137049351Y-136007837D01*
X136817073Y-135775154D01*
X136216547Y-135525794D01*
X135566306Y-135525226D01*
X134965345Y-135773538D01*
X134505154Y-136232927D01*
X134255794Y-136833453D01*
X134255226Y-137483694D01*
X132316541Y-137483694D01*
X132607871Y-137047689D01*
X132721945Y-136474200D01*
X132607871Y-135900711D01*
X132283015Y-135414530D01*
X131973531Y-135207739D01*
X132389332Y-134836236D01*
X132643309Y-134308991D01*
X132645958Y-134293226D01*
X132524817Y-134061200D01*
X131165600Y-134061200D01*
X131165600Y-134081200D01*
X130911600Y-134081200D01*
X130911600Y-134061200D01*
X129552383Y-134061200D01*
X129431242Y-134293226D01*
X129433891Y-134308991D01*
X129687868Y-134836236D01*
X130103669Y-135207739D01*
X129794185Y-135414530D01*
X129469329Y-135900711D01*
X129355255Y-136474200D01*
X128980000Y-136474200D01*
X128980000Y-97413070D01*
X129482454Y-98165046D01*
X130266342Y-98688823D01*
X131191000Y-98872749D01*
X132115658Y-98688823D01*
X132899546Y-98165046D01*
X133381941Y-97443091D01*
X133487538Y-97698655D01*
X133946927Y-98158846D01*
X134547453Y-98408206D01*
X135197694Y-98408774D01*
X135798655Y-98160462D01*
X136144199Y-97815520D01*
X136486927Y-98158846D01*
X137087453Y-98408206D01*
X137670000Y-98408715D01*
X137670000Y-100439897D01*
X137600799Y-100411162D01*
X137228833Y-100410838D01*
X136885057Y-100552883D01*
X136621808Y-100815673D01*
X136479162Y-101159201D01*
X136478838Y-101531167D01*
X136620883Y-101874943D01*
X136654000Y-101908118D01*
X136654000Y-102809198D01*
X135378659Y-104084539D01*
X135150327Y-103855808D01*
X134806799Y-103713162D01*
X134759923Y-103713121D01*
X133963601Y-102916799D01*
X133717039Y-102752052D01*
X133426200Y-102694200D01*
X132483248Y-102694200D01*
X132283015Y-102394530D01*
X131968234Y-102184200D01*
X132283015Y-101973870D01*
X132607871Y-101487689D01*
X132721945Y-100914200D01*
X132607871Y-100340711D01*
X132283015Y-99854530D01*
X131796834Y-99529674D01*
X131223345Y-99415600D01*
X130853855Y-99415600D01*
X130280366Y-99529674D01*
X129794185Y-99854530D01*
X129469329Y-100340711D01*
X129355255Y-100914200D01*
X129469329Y-101487689D01*
X129794185Y-101973870D01*
X130108966Y-102184200D01*
X129794185Y-102394530D01*
X129469329Y-102880711D01*
X129355255Y-103454200D01*
X129469329Y-104027689D01*
X129794185Y-104513870D01*
X130108966Y-104724200D01*
X129794185Y-104934530D01*
X129469329Y-105420711D01*
X129355255Y-105994200D01*
X129469329Y-106567689D01*
X129794185Y-107053870D01*
X130108966Y-107264200D01*
X129794185Y-107474530D01*
X129469329Y-107960711D01*
X129355255Y-108534200D01*
X129469329Y-109107689D01*
X129794185Y-109593870D01*
X130108966Y-109804200D01*
X129794185Y-110014530D01*
X129469329Y-110500711D01*
X129355255Y-111074200D01*
X129469329Y-111647689D01*
X129794185Y-112133870D01*
X130108966Y-112344200D01*
X129794185Y-112554530D01*
X129469329Y-113040711D01*
X129355255Y-113614200D01*
X129469329Y-114187689D01*
X129794185Y-114673870D01*
X130103669Y-114880661D01*
X129687868Y-115252164D01*
X129433891Y-115779409D01*
X129431242Y-115795174D01*
X129552383Y-116027200D01*
X130911600Y-116027200D01*
X130911600Y-116007200D01*
X131165600Y-116007200D01*
X131165600Y-116027200D01*
X131185600Y-116027200D01*
X131185600Y-116281200D01*
X131165600Y-116281200D01*
X131165600Y-116301200D01*
X130911600Y-116301200D01*
X130911600Y-116281200D01*
X129552383Y-116281200D01*
X129431242Y-116513226D01*
X129433891Y-116528991D01*
X129687868Y-117056236D01*
X130103669Y-117427739D01*
X129794185Y-117634530D01*
X129469329Y-118120711D01*
X129355255Y-118694200D01*
X129469329Y-119267689D01*
X129794185Y-119753870D01*
X130108966Y-119964200D01*
X129794185Y-120174530D01*
X129469329Y-120660711D01*
X129355255Y-121234200D01*
X129469329Y-121807689D01*
X129794185Y-122293870D01*
X130108966Y-122504200D01*
X129794185Y-122714530D01*
X129469329Y-123200711D01*
X129355255Y-123774200D01*
X129469329Y-124347689D01*
X129794185Y-124833870D01*
X130108966Y-125044200D01*
X129794185Y-125254530D01*
X129469329Y-125740711D01*
X129355255Y-126314200D01*
X129469329Y-126887689D01*
X129794185Y-127373870D01*
X130108966Y-127584200D01*
X129794185Y-127794530D01*
X129469329Y-128280711D01*
X129355255Y-128854200D01*
X129469329Y-129427689D01*
X129794185Y-129913870D01*
X130108966Y-130124200D01*
X129794185Y-130334530D01*
X129469329Y-130820711D01*
X129355255Y-131394200D01*
X129469329Y-131967689D01*
X129794185Y-132453870D01*
X130103669Y-132660661D01*
X129687868Y-133032164D01*
X129433891Y-133559409D01*
X129431242Y-133575174D01*
X129552383Y-133807200D01*
X130911600Y-133807200D01*
X130911600Y-133787200D01*
X131165600Y-133787200D01*
X131165600Y-133807200D01*
X132524817Y-133807200D01*
X132645958Y-133575174D01*
X132643309Y-133559409D01*
X132389332Y-133032164D01*
X131973531Y-132660661D01*
X132283015Y-132453870D01*
X132607871Y-131967689D01*
X132721945Y-131394200D01*
X132607871Y-130820711D01*
X132283015Y-130334530D01*
X131968234Y-130124200D01*
X132283015Y-129913870D01*
X132607871Y-129427689D01*
X132673784Y-129096319D01*
X132782201Y-129141338D01*
X133154167Y-129141662D01*
X133497943Y-128999617D01*
X133761192Y-128736827D01*
X133903838Y-128393299D01*
X133904162Y-128021333D01*
X133762117Y-127677557D01*
X133729000Y-127644382D01*
X133729000Y-124579532D01*
X133784690Y-124602600D01*
X135025250Y-124602600D01*
X135184000Y-124443850D01*
X135184000Y-122694600D01*
X135164000Y-122694600D01*
X135164000Y-122440600D01*
X135184000Y-122440600D01*
X135184000Y-120691350D01*
X135438000Y-120691350D01*
X135438000Y-122440600D01*
X135458000Y-122440600D01*
X135458000Y-122694600D01*
X135438000Y-122694600D01*
X135438000Y-124443850D01*
X135596750Y-124602600D01*
X136837310Y-124602600D01*
X137010541Y-124530845D01*
X137059110Y-124564031D01*
X137311000Y-124615040D01*
X137951000Y-124615040D01*
X137951000Y-128652600D01*
X138008852Y-128943439D01*
X138173599Y-129190001D01*
X142007399Y-133023801D01*
X142253961Y-133188548D01*
X142544800Y-133246400D01*
X147290937Y-133246400D01*
X147323073Y-133278592D01*
X147666601Y-133421238D01*
X148038567Y-133421562D01*
X148382343Y-133279517D01*
X148645592Y-133016727D01*
X148788238Y-132673199D01*
X148788420Y-132464222D01*
X149229678Y-132905480D01*
X149229638Y-132950967D01*
X149371683Y-133294743D01*
X149634473Y-133557992D01*
X149978001Y-133700638D01*
X150349967Y-133700962D01*
X150693743Y-133558917D01*
X150956992Y-133296127D01*
X151099638Y-132952599D01*
X151099962Y-132580633D01*
X150957917Y-132236857D01*
X150695127Y-131973608D01*
X150351599Y-131830962D01*
X150304723Y-131830921D01*
X149489775Y-131015973D01*
X149728543Y-130917317D01*
X149991792Y-130654527D01*
X150134438Y-130310999D01*
X150134762Y-129939033D01*
X149992717Y-129595257D01*
X149729927Y-129332008D01*
X149386399Y-129189362D01*
X149339523Y-129189321D01*
X148588000Y-128437798D01*
X148588000Y-125536802D01*
X149509763Y-124615040D01*
X151211000Y-124615040D01*
X151446317Y-124570762D01*
X151662441Y-124431690D01*
X151807431Y-124219490D01*
X151858440Y-123967600D01*
X151858440Y-121167600D01*
X151814162Y-120932283D01*
X151675090Y-120716159D01*
X151462890Y-120571169D01*
X151211000Y-120520160D01*
X148411000Y-120520160D01*
X148175683Y-120564438D01*
X148061022Y-120638220D01*
X147962890Y-120571169D01*
X147711000Y-120520160D01*
X144911000Y-120520160D01*
X144675683Y-120564438D01*
X144459559Y-120703510D01*
X144314569Y-120915710D01*
X144263560Y-121167600D01*
X144263560Y-123967600D01*
X144307838Y-124202917D01*
X144446910Y-124419041D01*
X144659110Y-124564031D01*
X144911000Y-124615040D01*
X145551000Y-124615040D01*
X145551000Y-128912000D01*
X145608852Y-129202839D01*
X145773599Y-129449401D01*
X147875617Y-131551419D01*
X147668233Y-131551238D01*
X147324457Y-131693283D01*
X147291282Y-131726400D01*
X142859602Y-131726400D01*
X139471000Y-128337798D01*
X139471000Y-124615040D01*
X140111000Y-124615040D01*
X140346317Y-124570762D01*
X140562441Y-124431690D01*
X140707431Y-124219490D01*
X140758440Y-123967600D01*
X140758440Y-121167600D01*
X140714162Y-120932283D01*
X140575090Y-120716159D01*
X140362890Y-120571169D01*
X140111000Y-120520160D01*
X137311000Y-120520160D01*
X137075683Y-120564438D01*
X137012433Y-120605138D01*
X136837310Y-120532600D01*
X135596750Y-120532600D01*
X135438000Y-120691350D01*
X135184000Y-120691350D01*
X135025250Y-120532600D01*
X133784690Y-120532600D01*
X133766128Y-120540288D01*
X133824692Y-120481827D01*
X133967338Y-120138299D01*
X133967662Y-119766333D01*
X133838692Y-119454200D01*
X134635398Y-119454200D01*
X135352599Y-120171401D01*
X135599161Y-120336148D01*
X135890000Y-120394000D01*
X140970000Y-120394000D01*
X141260839Y-120336148D01*
X141507401Y-120171401D01*
X142015401Y-119663401D01*
X142035046Y-119634000D01*
X142180148Y-119416839D01*
X142238000Y-119126000D01*
X142238000Y-117910463D01*
X142270192Y-117878327D01*
X142412838Y-117534799D01*
X142413162Y-117162833D01*
X142271117Y-116819057D01*
X142008327Y-116555808D01*
X141664799Y-116413162D01*
X141292833Y-116412838D01*
X140949057Y-116554883D01*
X140685808Y-116817673D01*
X140543162Y-117161201D01*
X140542838Y-117533167D01*
X140684883Y-117876943D01*
X140718000Y-117910118D01*
X140718000Y-118811198D01*
X140655198Y-118874000D01*
X136204802Y-118874000D01*
X135487601Y-118156799D01*
X135241039Y-117992052D01*
X134950200Y-117934200D01*
X133967488Y-117934200D01*
X133967662Y-117734333D01*
X133825617Y-117390557D01*
X133792500Y-117357382D01*
X133792500Y-114617500D01*
X133744104Y-114374200D01*
X138099800Y-114374200D01*
X138390639Y-114316348D01*
X138637201Y-114151601D01*
X142015401Y-110773401D01*
X142180148Y-110526840D01*
X142238000Y-110236000D01*
X142238000Y-101687453D01*
X142275792Y-101649727D01*
X142418438Y-101306199D01*
X142418762Y-100934233D01*
X142276717Y-100590457D01*
X142013927Y-100327208D01*
X141670399Y-100184562D01*
X141298433Y-100184238D01*
X141222000Y-100215819D01*
X141222000Y-97817715D01*
X141338846Y-97701073D01*
X141588206Y-97100547D01*
X141588774Y-96450306D01*
X141340462Y-95849345D01*
X141247280Y-95756000D01*
X143703198Y-95756000D01*
X144528000Y-96580802D01*
G36*
X146189700Y-94742690D02*
X146189700Y-96678750D01*
X146348450Y-96837500D01*
X147332700Y-96837500D01*
X147332700Y-96817500D01*
X147586700Y-96817500D01*
X147586700Y-96837500D01*
X148570950Y-96837500D01*
X148729700Y-96678750D01*
X148729700Y-94742690D01*
X148707875Y-94690000D01*
X150504125Y-94690000D01*
X150482300Y-94742690D01*
X150482300Y-96678750D01*
X150641050Y-96837500D01*
X151625300Y-96837500D01*
X151625300Y-96817500D01*
X151879300Y-96817500D01*
X151879300Y-96837500D01*
X152863550Y-96837500D01*
X153022300Y-96678750D01*
X153022300Y-94742690D01*
X153000475Y-94690000D01*
X155500000Y-94690000D01*
X155500000Y-100502234D01*
X155467871Y-100340711D01*
X155143015Y-99854530D01*
X154656834Y-99529674D01*
X154083345Y-99415600D01*
X153713855Y-99415600D01*
X153140366Y-99529674D01*
X152654185Y-99854530D01*
X152434968Y-100182611D01*
X152286961Y-100212052D01*
X152040399Y-100376799D01*
X150307198Y-102110000D01*
X146618802Y-102110000D01*
X146048000Y-101539198D01*
X146048000Y-97250250D01*
X146189700Y-97250250D01*
X146189700Y-99186310D01*
X146286373Y-99419699D01*
X146465002Y-99598327D01*
X146698391Y-99695000D01*
X147173950Y-99695000D01*
X147332700Y-99536250D01*
X147332700Y-97091500D01*
X147586700Y-97091500D01*
X147586700Y-99536250D01*
X147745450Y-99695000D01*
X148221009Y-99695000D01*
X148454398Y-99598327D01*
X148633027Y-99419699D01*
X148729700Y-99186310D01*
X148729700Y-97250250D01*
X150482300Y-97250250D01*
X150482300Y-99186310D01*
X150578973Y-99419699D01*
X150757602Y-99598327D01*
X150990991Y-99695000D01*
X151466550Y-99695000D01*
X151625300Y-99536250D01*
X151625300Y-97091500D01*
X151879300Y-97091500D01*
X151879300Y-99536250D01*
X152038050Y-99695000D01*
X152513609Y-99695000D01*
X152746998Y-99598327D01*
X152925627Y-99419699D01*
X153022300Y-99186310D01*
X153022300Y-97250250D01*
X152863550Y-97091500D01*
X151879300Y-97091500D01*
X151625300Y-97091500D01*
X150641050Y-97091500D01*
X150482300Y-97250250D01*
X148729700Y-97250250D01*
X148570950Y-97091500D01*
X147586700Y-97091500D01*
X147332700Y-97091500D01*
X146348450Y-97091500D01*
X146189700Y-97250250D01*
X146048000Y-97250250D01*
X146048000Y-96266000D01*
X145990148Y-95975161D01*
X145990148Y-95975160D01*
X145825401Y-95728599D01*
X144786802Y-94690000D01*
X146211525Y-94690000D01*
X146189700Y-94742690D01*
X146189700Y-94742690D01*
G37*
X146189700Y-94742690D02*
X146189700Y-96678750D01*
X146348450Y-96837500D01*
X147332700Y-96837500D01*
X147332700Y-96817500D01*
X147586700Y-96817500D01*
X147586700Y-96837500D01*
X148570950Y-96837500D01*
X148729700Y-96678750D01*
X148729700Y-94742690D01*
X148707875Y-94690000D01*
X150504125Y-94690000D01*
X150482300Y-94742690D01*
X150482300Y-96678750D01*
X150641050Y-96837500D01*
X151625300Y-96837500D01*
X151625300Y-96817500D01*
X151879300Y-96817500D01*
X151879300Y-96837500D01*
X152863550Y-96837500D01*
X153022300Y-96678750D01*
X153022300Y-94742690D01*
X153000475Y-94690000D01*
X155500000Y-94690000D01*
X155500000Y-100502234D01*
X155467871Y-100340711D01*
X155143015Y-99854530D01*
X154656834Y-99529674D01*
X154083345Y-99415600D01*
X153713855Y-99415600D01*
X153140366Y-99529674D01*
X152654185Y-99854530D01*
X152434968Y-100182611D01*
X152286961Y-100212052D01*
X152040399Y-100376799D01*
X150307198Y-102110000D01*
X146618802Y-102110000D01*
X146048000Y-101539198D01*
X146048000Y-97250250D01*
X146189700Y-97250250D01*
X146189700Y-99186310D01*
X146286373Y-99419699D01*
X146465002Y-99598327D01*
X146698391Y-99695000D01*
X147173950Y-99695000D01*
X147332700Y-99536250D01*
X147332700Y-97091500D01*
X147586700Y-97091500D01*
X147586700Y-99536250D01*
X147745450Y-99695000D01*
X148221009Y-99695000D01*
X148454398Y-99598327D01*
X148633027Y-99419699D01*
X148729700Y-99186310D01*
X148729700Y-97250250D01*
X150482300Y-97250250D01*
X150482300Y-99186310D01*
X150578973Y-99419699D01*
X150757602Y-99598327D01*
X150990991Y-99695000D01*
X151466550Y-99695000D01*
X151625300Y-99536250D01*
X151625300Y-97091500D01*
X151879300Y-97091500D01*
X151879300Y-99536250D01*
X152038050Y-99695000D01*
X152513609Y-99695000D01*
X152746998Y-99598327D01*
X152925627Y-99419699D01*
X153022300Y-99186310D01*
X153022300Y-97250250D01*
X152863550Y-97091500D01*
X151879300Y-97091500D01*
X151625300Y-97091500D01*
X150641050Y-97091500D01*
X150482300Y-97250250D01*
X148729700Y-97250250D01*
X148570950Y-97091500D01*
X147586700Y-97091500D01*
X147332700Y-97091500D01*
X146348450Y-97091500D01*
X146189700Y-97250250D01*
X146048000Y-97250250D01*
X146048000Y-96266000D01*
X145990148Y-95975161D01*
X145990148Y-95975160D01*
X145825401Y-95728599D01*
X144786802Y-94690000D01*
X146211525Y-94690000D01*
X146189700Y-94742690D01*
M02*
