G04 #@! TF.FileFunction,Soldermask,Bot*
%FSLAX46Y46*%
G04 Gerber Fmt 4.6, Leading zero omitted, Abs format (unit mm)*
G04 Created by KiCad (PCBNEW 4.0.4-stable) date 04/06/17 15:32:41*
%MOMM*%
%LPD*%
G01*
G04 APERTURE LIST*
%ADD10C,0.100000*%
%ADD11C,2.398980*%
%ADD12O,2.432000X2.127200*%
%ADD13R,2.250000X2.250000*%
%ADD14C,2.250000*%
%ADD15R,3.200000X3.200000*%
G04 APERTURE END LIST*
D10*
D11*
X135890000Y-137160000D03*
X134874000Y-96774000D03*
D12*
X153898600Y-100914200D03*
X153898600Y-103454200D03*
X153898600Y-105994200D03*
X153898600Y-108534200D03*
X153898600Y-111074200D03*
X153898600Y-113614200D03*
X153898600Y-116154200D03*
X153898600Y-118694200D03*
X153898600Y-121234200D03*
X153898600Y-123774200D03*
X153898600Y-126314200D03*
X153898600Y-128854200D03*
X153898600Y-131394200D03*
X153898600Y-133934200D03*
X153898600Y-136474200D03*
X131038600Y-100914200D03*
X131038600Y-131394200D03*
X131038600Y-133934200D03*
X131038600Y-128854200D03*
X131038600Y-113614200D03*
X131038600Y-111074200D03*
X131038600Y-116154200D03*
X131038600Y-136474200D03*
X131038600Y-121234200D03*
X131038600Y-118694200D03*
X131038600Y-123774200D03*
X131038600Y-126314200D03*
X131038600Y-105994200D03*
X131038600Y-108534200D03*
X131038600Y-103454200D03*
D11*
X137414000Y-96774000D03*
X139954000Y-96774000D03*
X138430000Y-137160000D03*
D13*
X153771600Y-143941800D03*
D14*
X153771600Y-141441800D03*
D15*
X138711000Y-122567600D03*
X146311000Y-122567600D03*
X135311000Y-122567600D03*
X149811000Y-122567600D03*
X135611000Y-145467600D03*
X149811000Y-145467600D03*
M02*
