G04 #@! TF.FileFunction,Copper,L1,Top,Signal*
%FSLAX46Y46*%
G04 Gerber Fmt 4.6, Leading zero omitted, Abs format (unit mm)*
G04 Created by KiCad (PCBNEW 4.0.4-stable) date 04/06/17 15:32:41*
%MOMM*%
%LPD*%
G01*
G04 APERTURE LIST*
%ADD10C,0.100000*%
%ADD11C,1.998980*%
%ADD12R,1.270000X4.191000*%
%ADD13R,1.270000X3.683000*%
%ADD14O,2.032000X1.727200*%
%ADD15R,1.000000X2.000000*%
%ADD16R,1.850000X1.850000*%
%ADD17C,1.850000*%
%ADD18R,2.800000X2.800000*%
%ADD19R,2.000000X1.600000*%
%ADD20R,1.600000X1.000000*%
%ADD21R,2.000000X1.700000*%
%ADD22C,0.600000*%
%ADD23C,0.250000*%
%ADD24C,0.600000*%
G04 APERTURE END LIST*
D10*
D11*
X135890000Y-137160000D03*
X134874000Y-96774000D03*
D12*
X147459700Y-96964500D03*
X151752300Y-96964500D03*
D13*
X149606000Y-97218500D03*
D14*
X153898600Y-100914200D03*
X153898600Y-103454200D03*
X153898600Y-105994200D03*
X153898600Y-108534200D03*
X153898600Y-111074200D03*
X153898600Y-113614200D03*
X153898600Y-116154200D03*
X153898600Y-118694200D03*
X153898600Y-121234200D03*
X153898600Y-123774200D03*
X153898600Y-126314200D03*
X153898600Y-128854200D03*
X153898600Y-131394200D03*
X153898600Y-133934200D03*
X153898600Y-136474200D03*
X131038600Y-100914200D03*
X131038600Y-131394200D03*
X131038600Y-133934200D03*
X131038600Y-128854200D03*
X131038600Y-113614200D03*
X131038600Y-111074200D03*
X131038600Y-116154200D03*
X131038600Y-136474200D03*
X131038600Y-121234200D03*
X131038600Y-118694200D03*
X131038600Y-123774200D03*
X131038600Y-126314200D03*
X131038600Y-105994200D03*
X131038600Y-108534200D03*
X131038600Y-103454200D03*
D15*
X135483600Y-117119400D03*
X137483600Y-117119400D03*
X139483600Y-117119400D03*
X141483600Y-117119400D03*
X143483600Y-117119400D03*
X145483600Y-117119400D03*
X147483600Y-117119400D03*
X149483600Y-117119400D03*
X149483600Y-101119400D03*
X147483600Y-101119400D03*
X145483600Y-101119400D03*
X143483600Y-101119400D03*
X141483600Y-101119400D03*
X139483600Y-101119400D03*
X137483600Y-101119400D03*
X135483600Y-101119400D03*
D11*
X137414000Y-96774000D03*
X139954000Y-96774000D03*
X138430000Y-137160000D03*
D16*
X153771600Y-143941800D03*
D17*
X153771600Y-141441800D03*
D18*
X138711000Y-122567600D03*
X146311000Y-122567600D03*
X135311000Y-122567600D03*
X149811000Y-122567600D03*
X135611000Y-145467600D03*
X149811000Y-145467600D03*
D19*
X134842000Y-141795500D03*
X130842000Y-141795500D03*
X146399000Y-136080500D03*
X142399000Y-136080500D03*
X134778500Y-139509500D03*
X130778500Y-139509500D03*
D20*
X143319500Y-120610500D03*
X143319500Y-123610500D03*
D21*
X149955000Y-125412500D03*
X145955000Y-125412500D03*
D22*
X149199600Y-130124200D03*
X132715000Y-139446000D03*
X132969000Y-128206500D03*
X133032500Y-119951500D03*
X133032500Y-117919500D03*
X141483600Y-101119400D03*
X141478000Y-117348000D03*
X137414000Y-101346000D03*
X134620000Y-104648000D03*
X150266400Y-136169400D03*
X150164800Y-132765800D03*
X151765000Y-137337800D03*
X147853400Y-132486400D03*
D23*
X153898600Y-136474200D02*
X153263600Y-136474200D01*
X153263600Y-136474200D02*
X151079200Y-134289800D01*
X151079200Y-132003800D02*
X149199600Y-130124200D01*
X151079200Y-134289800D02*
X151079200Y-132003800D01*
X135890000Y-137160000D02*
X135890000Y-137998200D01*
X135890000Y-137998200D02*
X137261600Y-139369800D01*
X137261600Y-139369800D02*
X151003000Y-139369800D01*
X151003000Y-139369800D02*
X153898600Y-136474200D01*
X135534400Y-136474200D02*
X135509000Y-136499600D01*
X138430000Y-137160000D02*
X141319500Y-137160000D01*
X141319500Y-137160000D02*
X142399000Y-136080500D01*
X132651500Y-139509500D02*
X130778500Y-139509500D01*
X132715000Y-139446000D02*
X132651500Y-139509500D01*
X130842000Y-141795500D02*
X130842000Y-139573000D01*
X130842000Y-139573000D02*
X130778500Y-139509500D01*
X151612600Y-119824500D02*
X144105500Y-119824500D01*
X144105500Y-119824500D02*
X143319500Y-120610500D01*
X149483600Y-117119400D02*
X150317200Y-117119400D01*
X152374600Y-123774200D02*
X153898600Y-123774200D01*
X151612600Y-123012200D02*
X152374600Y-123774200D01*
X151612600Y-118414800D02*
X151612600Y-119824500D01*
X151612600Y-119824500D02*
X151612600Y-123012200D01*
X150317200Y-117119400D02*
X151612600Y-118414800D01*
X147483600Y-104368600D02*
X149606000Y-104368600D01*
X151752300Y-102222300D02*
X151752300Y-96964500D01*
X149606000Y-104368600D02*
X151752300Y-102222300D01*
X131038600Y-116154200D02*
X132664200Y-116154200D01*
X133629400Y-117119400D02*
X135483600Y-117119400D01*
X132664200Y-116154200D02*
X133629400Y-117119400D01*
X153898600Y-123774200D02*
X154508200Y-123774200D01*
X154508200Y-123774200D02*
X155448000Y-124714000D01*
X155448000Y-132384800D02*
X153898600Y-133934200D01*
X155448000Y-124714000D02*
X155448000Y-132384800D01*
X147483600Y-101119400D02*
X147483600Y-104368600D01*
X147483600Y-104368600D02*
X147483600Y-108621600D01*
X149483600Y-110621600D02*
X149483600Y-117119400D01*
X147483600Y-108621600D02*
X149483600Y-110621600D01*
X147459700Y-96964500D02*
X147459700Y-96126300D01*
X151752300Y-95872300D02*
X151752300Y-96964500D01*
X147483600Y-101119400D02*
X147483600Y-96988400D01*
X147483600Y-96988400D02*
X147459700Y-96964500D01*
D24*
X149483600Y-101119400D02*
X149483600Y-97340900D01*
X149483600Y-97340900D02*
X149606000Y-97218500D01*
D23*
X149483600Y-97340900D02*
X149606000Y-97218500D01*
X134620000Y-132588000D02*
X135382000Y-133350000D01*
X134620000Y-129857500D02*
X134620000Y-132588000D01*
X132969000Y-128206500D02*
X134620000Y-129857500D01*
X133032500Y-117919500D02*
X133032500Y-119951500D01*
X134842000Y-141795500D02*
X134842000Y-139573000D01*
X134842000Y-139573000D02*
X134778500Y-139509500D01*
X133318250Y-135159750D02*
X133318250Y-136937750D01*
X134778500Y-138398000D02*
X134778500Y-139509500D01*
X133318250Y-136937750D02*
X134778500Y-138398000D01*
X146399000Y-136080500D02*
X146399000Y-134207000D01*
X145542000Y-133350000D02*
X144526000Y-133350000D01*
X146399000Y-134207000D02*
X145542000Y-133350000D01*
X153898600Y-126314200D02*
X151561800Y-126314200D01*
X151561800Y-126314200D02*
X144526000Y-133350000D01*
X144526000Y-133350000D02*
X135382000Y-133350000D01*
X135382000Y-133350000D02*
X135128000Y-133350000D01*
X135128000Y-133350000D02*
X133318250Y-135159750D01*
X133318250Y-135159750D02*
X132003800Y-136474200D01*
X132003800Y-136474200D02*
X131038600Y-136474200D01*
X131038600Y-100914200D02*
X132410200Y-100914200D01*
X143483600Y-114781600D02*
X143483600Y-117119400D01*
X143256000Y-114554000D02*
X143483600Y-114781600D01*
X140970000Y-114554000D02*
X143256000Y-114554000D01*
X133858000Y-107442000D02*
X140970000Y-114554000D01*
X133858000Y-102362000D02*
X133858000Y-107442000D01*
X132410200Y-100914200D02*
X133858000Y-102362000D01*
X137483600Y-117119400D02*
X137483600Y-119056400D01*
X133273800Y-121234200D02*
X131038600Y-121234200D01*
X134112000Y-120396000D02*
X133273800Y-121234200D01*
X136144000Y-120396000D02*
X134112000Y-120396000D01*
X137483600Y-119056400D02*
X136144000Y-120396000D01*
X141478000Y-117348000D02*
X141483600Y-117342400D01*
X141483600Y-117342400D02*
X141483600Y-117119400D01*
X131038600Y-123774200D02*
X131927600Y-123774200D01*
X131927600Y-123774200D02*
X134264400Y-126111000D01*
X134264400Y-126111000D02*
X140360400Y-126111000D01*
X140360400Y-126111000D02*
X141782800Y-124688600D01*
X141782800Y-124688600D02*
X141782800Y-119913400D01*
X141782800Y-119913400D02*
X140360400Y-118491000D01*
X140360400Y-118491000D02*
X139344400Y-118491000D01*
X139344400Y-118491000D02*
X139483600Y-118351800D01*
X139483600Y-118351800D02*
X139483600Y-117119400D01*
X149955000Y-125412500D02*
X148971000Y-125412500D01*
X148971000Y-125412500D02*
X147193000Y-127190500D01*
X147193000Y-127190500D02*
X131914900Y-127190500D01*
X131914900Y-127190500D02*
X131038600Y-126314200D01*
X137414000Y-101346000D02*
X137483600Y-101276400D01*
X137483600Y-101276400D02*
X137483600Y-101119400D01*
X139483600Y-101119400D02*
X139483600Y-104356400D01*
X139192000Y-104648000D02*
X134620000Y-104648000D01*
X139483600Y-104356400D02*
X139192000Y-104648000D01*
X150266400Y-132867400D02*
X150266400Y-136169400D01*
X150164800Y-132765800D02*
X150266400Y-132867400D01*
X149783800Y-137337800D02*
X151765000Y-137337800D01*
X149174200Y-136728200D02*
X149783800Y-137337800D01*
X149174200Y-133807200D02*
X149174200Y-136728200D01*
X147853400Y-132486400D02*
X149174200Y-133807200D01*
X143319500Y-123610500D02*
X143319500Y-124333000D01*
X144399000Y-125412500D02*
X145955000Y-125412500D01*
X143319500Y-124333000D02*
X144399000Y-125412500D01*
M02*
