G04 #@! TF.FileFunction,Soldermask,Top*
%FSLAX46Y46*%
G04 Gerber Fmt 4.6, Leading zero omitted, Abs format (unit mm)*
G04 Created by KiCad (PCBNEW 4.0.4-stable) date 04/06/17 15:32:41*
%MOMM*%
%LPD*%
G01*
G04 APERTURE LIST*
%ADD10C,0.100000*%
%ADD11C,0.300000*%
%ADD12C,2.398980*%
%ADD13R,1.670000X4.591000*%
%ADD14R,1.670000X4.083000*%
%ADD15O,2.432000X2.127200*%
%ADD16R,1.400000X2.400000*%
%ADD17R,2.250000X2.250000*%
%ADD18C,2.250000*%
%ADD19R,3.200000X3.200000*%
%ADD20R,2.400000X2.000000*%
%ADD21R,2.000000X1.400000*%
%ADD22R,2.400000X2.100000*%
G04 APERTURE END LIST*
D10*
D11*
X135971715Y-84251392D02*
X136042982Y-84179801D01*
X136185675Y-84108047D01*
X136542818Y-84107233D01*
X136685837Y-84178336D01*
X136757428Y-84249602D01*
X136829182Y-84392296D01*
X136829507Y-84535153D01*
X136758567Y-84749601D01*
X135903379Y-85608693D01*
X136831948Y-85606578D01*
X137328529Y-84105443D02*
X138328527Y-84103165D01*
X137689088Y-85604626D01*
X138974635Y-85530269D02*
X138974798Y-85601697D01*
X138903696Y-85744717D01*
X138832430Y-85816308D01*
X139829987Y-84742605D02*
X139686967Y-84671501D01*
X139615376Y-84600235D01*
X139543622Y-84457541D01*
X139543460Y-84386114D01*
X139614563Y-84243094D01*
X139685828Y-84171503D01*
X139828523Y-84099748D01*
X140114236Y-84099098D01*
X140257256Y-84170201D01*
X140328847Y-84241467D01*
X140400600Y-84384161D01*
X140400763Y-84455589D01*
X140329661Y-84598608D01*
X140258395Y-84670200D01*
X140115701Y-84741954D01*
X139829987Y-84742605D01*
X139687292Y-84814358D01*
X139616027Y-84885950D01*
X139544924Y-85028969D01*
X139545575Y-85314682D01*
X139617329Y-85457376D01*
X139688919Y-85528642D01*
X139831940Y-85599745D01*
X140117653Y-85599094D01*
X140260347Y-85527341D01*
X140331613Y-85455749D01*
X140402716Y-85312730D01*
X140402065Y-85027016D01*
X140330311Y-84884322D01*
X140258720Y-84813056D01*
X140115701Y-84741954D01*
X140899948Y-84097308D02*
X141899946Y-84095030D01*
X141260507Y-85596490D01*
X142328515Y-84094054D02*
X143328513Y-84091776D01*
X142689074Y-85593236D01*
X145046210Y-85587867D02*
X145043932Y-84587870D01*
X145044258Y-84730727D02*
X145115523Y-84659136D01*
X145258218Y-84587381D01*
X145472502Y-84586893D01*
X145615522Y-84657997D01*
X145687276Y-84800691D01*
X145689066Y-85586403D01*
X145687276Y-84800691D02*
X145758379Y-84657671D01*
X145901073Y-84585917D01*
X146115358Y-84585429D01*
X146258378Y-84656532D01*
X146330131Y-84799226D01*
X146331921Y-85584938D01*
X147046205Y-85583311D02*
X147043927Y-84583314D01*
X147044253Y-84726171D02*
X147115518Y-84654580D01*
X147258213Y-84582826D01*
X147472497Y-84582338D01*
X147615516Y-84653441D01*
X147687271Y-84796135D01*
X147689060Y-85581847D01*
X147687271Y-84796135D02*
X147758374Y-84653116D01*
X147901068Y-84581361D01*
X148115352Y-84580873D01*
X148258373Y-84651977D01*
X148330126Y-84794670D01*
X148331916Y-85580382D01*
X128252355Y-86297553D02*
X156128855Y-86234053D01*
X128270000Y-94043500D02*
X128246205Y-83597560D01*
X156146500Y-93980000D02*
X156122705Y-83534060D01*
X156128855Y-86234053D02*
X155003690Y-86823038D01*
X156128855Y-86234053D02*
X155001018Y-85650200D01*
X128252355Y-86297553D02*
X129380192Y-86881406D01*
X128252355Y-86297553D02*
X129377520Y-85708568D01*
X165239429Y-115126180D02*
X165239429Y-114411894D01*
X164525143Y-114340465D01*
X164596571Y-114411894D01*
X164668000Y-114554751D01*
X164668000Y-114911894D01*
X164596571Y-115054751D01*
X164525143Y-115126180D01*
X164382286Y-115197608D01*
X164025143Y-115197608D01*
X163882286Y-115126180D01*
X163810857Y-115054751D01*
X163739429Y-114911894D01*
X163739429Y-114554751D01*
X163810857Y-114411894D01*
X163882286Y-114340465D01*
X165239429Y-115697608D02*
X165239429Y-116626179D01*
X164668000Y-116126179D01*
X164668000Y-116340465D01*
X164596571Y-116483322D01*
X164525143Y-116554751D01*
X164382286Y-116626179D01*
X164025143Y-116626179D01*
X163882286Y-116554751D01*
X163810857Y-116483322D01*
X163739429Y-116340465D01*
X163739429Y-115911893D01*
X163810857Y-115769036D01*
X163882286Y-115697608D01*
X163810857Y-117340464D02*
X163739429Y-117340464D01*
X163596571Y-117269036D01*
X163525143Y-117197607D01*
X163739429Y-118769036D02*
X163739429Y-117911893D01*
X163739429Y-118340465D02*
X165239429Y-118340465D01*
X165025143Y-118197608D01*
X164882286Y-118054750D01*
X164810857Y-117911893D01*
X165239429Y-120126179D02*
X165239429Y-119411893D01*
X164525143Y-119340464D01*
X164596571Y-119411893D01*
X164668000Y-119554750D01*
X164668000Y-119911893D01*
X164596571Y-120054750D01*
X164525143Y-120126179D01*
X164382286Y-120197607D01*
X164025143Y-120197607D01*
X163882286Y-120126179D01*
X163810857Y-120054750D01*
X163739429Y-119911893D01*
X163739429Y-119554750D01*
X163810857Y-119411893D01*
X163882286Y-119340464D01*
X165239429Y-121126178D02*
X165239429Y-121269035D01*
X165168000Y-121411892D01*
X165096571Y-121483321D01*
X164953714Y-121554750D01*
X164668000Y-121626178D01*
X164310857Y-121626178D01*
X164025143Y-121554750D01*
X163882286Y-121483321D01*
X163810857Y-121411892D01*
X163739429Y-121269035D01*
X163739429Y-121126178D01*
X163810857Y-120983321D01*
X163882286Y-120911892D01*
X164025143Y-120840464D01*
X164310857Y-120769035D01*
X164668000Y-120769035D01*
X164953714Y-120840464D01*
X165096571Y-120911892D01*
X165168000Y-120983321D01*
X165239429Y-121126178D01*
X163739429Y-123411892D02*
X164739429Y-123411892D01*
X164596571Y-123411892D02*
X164668000Y-123483320D01*
X164739429Y-123626178D01*
X164739429Y-123840463D01*
X164668000Y-123983320D01*
X164525143Y-124054749D01*
X163739429Y-124054749D01*
X164525143Y-124054749D02*
X164668000Y-124126178D01*
X164739429Y-124269035D01*
X164739429Y-124483320D01*
X164668000Y-124626178D01*
X164525143Y-124697606D01*
X163739429Y-124697606D01*
X163739429Y-125411892D02*
X164739429Y-125411892D01*
X164596571Y-125411892D02*
X164668000Y-125483320D01*
X164739429Y-125626178D01*
X164739429Y-125840463D01*
X164668000Y-125983320D01*
X164525143Y-126054749D01*
X163739429Y-126054749D01*
X164525143Y-126054749D02*
X164668000Y-126126178D01*
X164739429Y-126269035D01*
X164739429Y-126483320D01*
X164668000Y-126626178D01*
X164525143Y-126697606D01*
X163739429Y-126697606D01*
X163068000Y-93980000D02*
X163068000Y-147129500D01*
X156210000Y-93980000D02*
X165768000Y-93980000D01*
X156210000Y-147129500D02*
X165768000Y-147129500D01*
X163068000Y-147129500D02*
X162481579Y-146002996D01*
X163068000Y-147129500D02*
X163654421Y-146002996D01*
X163068000Y-93980000D02*
X162481579Y-95106504D01*
X163068000Y-93980000D02*
X163654421Y-95106504D01*
D12*
X135890000Y-137160000D03*
X134874000Y-96774000D03*
D13*
X147459700Y-96964500D03*
X151752300Y-96964500D03*
D14*
X149606000Y-97218500D03*
D13*
X147459700Y-96964500D03*
X151752300Y-96964500D03*
D15*
X153898600Y-100914200D03*
X153898600Y-103454200D03*
X153898600Y-105994200D03*
X153898600Y-108534200D03*
X153898600Y-111074200D03*
X153898600Y-113614200D03*
X153898600Y-116154200D03*
X153898600Y-118694200D03*
X153898600Y-121234200D03*
X153898600Y-123774200D03*
X153898600Y-126314200D03*
X153898600Y-128854200D03*
X153898600Y-131394200D03*
X153898600Y-133934200D03*
X153898600Y-136474200D03*
X131038600Y-100914200D03*
X131038600Y-131394200D03*
X131038600Y-133934200D03*
X131038600Y-128854200D03*
X131038600Y-113614200D03*
X131038600Y-111074200D03*
X131038600Y-116154200D03*
X131038600Y-136474200D03*
X131038600Y-121234200D03*
X131038600Y-118694200D03*
X131038600Y-123774200D03*
X131038600Y-126314200D03*
X131038600Y-105994200D03*
X131038600Y-108534200D03*
X131038600Y-103454200D03*
D16*
X135483600Y-117119400D03*
X137483600Y-117119400D03*
X139483600Y-117119400D03*
X141483600Y-117119400D03*
X143483600Y-117119400D03*
X145483600Y-117119400D03*
X147483600Y-117119400D03*
X149483600Y-117119400D03*
X149483600Y-101119400D03*
X147483600Y-101119400D03*
X145483600Y-101119400D03*
X143483600Y-101119400D03*
X141483600Y-101119400D03*
X139483600Y-101119400D03*
X137483600Y-101119400D03*
X135483600Y-101119400D03*
D12*
X137414000Y-96774000D03*
X139954000Y-96774000D03*
X138430000Y-137160000D03*
D17*
X153771600Y-143941800D03*
D18*
X153771600Y-141441800D03*
D19*
X138711000Y-122567600D03*
X146311000Y-122567600D03*
X135311000Y-122567600D03*
X149811000Y-122567600D03*
X135611000Y-145467600D03*
X149811000Y-145467600D03*
D20*
X134842000Y-141795500D03*
X130842000Y-141795500D03*
X146399000Y-136080500D03*
X142399000Y-136080500D03*
X134778500Y-139509500D03*
X130778500Y-139509500D03*
D21*
X143319500Y-120610500D03*
X143319500Y-123610500D03*
D22*
X149955000Y-125412500D03*
X145955000Y-125412500D03*
M02*
