M48
;DRILL file {KiCad 4.0.4-stable} date 04/06/17 15:32:07
;FORMAT={3:3/ absolute / metric / suppress leading zeros}
FMAT,2
METRIC,TZ
T1C0.400
T2C0.800
T3C0.900
T4C1.016
T5C1.540
%
G90
G05
M71
T1
X132715Y-139446
X132969Y-128207
X133033Y-117919
X133033Y-119951
X134620Y-104648
X137414Y-101346
X141478Y-117348
X141484Y-101119
X147853Y-132486
X149200Y-130124
X150165Y-132766
X150266Y-136169
X151765Y-137338
T2
X134874Y-96774
X135890Y-137160
X137414Y-96774
X138430Y-137160
X139954Y-96774
T3
X153772Y-141442
X153772Y-143942
T4
X131039Y-100914
X131039Y-103454
X131039Y-105994
X131039Y-108534
X131039Y-111074
X131039Y-113614
X131039Y-116154
X131039Y-118694
X131039Y-121234
X131039Y-123774
X131039Y-126314
X131039Y-128854
X131039Y-131394
X131039Y-133934
X131039Y-136474
X153899Y-100914
X153899Y-103454
X153899Y-105994
X153899Y-108534
X153899Y-111074
X153899Y-113614
X153899Y-116154
X153899Y-118694
X153899Y-121234
X153899Y-123774
X153899Y-126314
X153899Y-128854
X153899Y-131394
X153899Y-133934
X153899Y-136474
T5
X135311Y-122568
X135611Y-145468
X138711Y-122568
X146311Y-122568
X149811Y-122568
X149811Y-145468
T0
M30
